<svg width="48" height="48" viewBox="0 0 48 48" fill="none" xmlns="http://www.w3.org/2000/svg">
<path d="M38.54 7.39H9.46C7.16802 7.39 5.31 9.24802 5.31 11.54V40.62C5.31 42.912 7.16802 44.77 9.46 44.77H38.54C40.832 44.77 42.69 42.912 42.69 40.62V11.54C42.69 9.24802 40.832 7.39 38.54 7.39Z" stroke="#2B4165" stroke-width="4" stroke-linecap="round" stroke-linejoin="round"/>
<path d="M32.31 3.23V11.54" stroke="#FFB200" stroke-width="4" stroke-linecap="round" stroke-linejoin="round"/>
<path d="M15.69 3.23V11.54" stroke="#FFB200" stroke-width="4" stroke-linecap="round" stroke-linejoin="round"/>
<path d="M11.59 24.5H10.64V25.46H11.59V24.5Z" stroke="#FFB200" stroke-width="4" stroke-linecap="round" stroke-linejoin="round"/>
<path d="M18 24.5H17.05V25.46H18V24.5Z" stroke="#2B4165" stroke-width="4" stroke-linecap="round" stroke-linejoin="round"/>
<path d="M24.41 24.5H23.46V25.46H24.41V24.5Z" stroke="#2B4165" stroke-width="4" stroke-linecap="round" stroke-linejoin="round"/>
<path d="M30.82 24.5H29.87V25.46H30.82V24.5Z" stroke="#2B4165" stroke-width="4" stroke-linecap="round" stroke-linejoin="round"/>
<path d="M37.23 24.5H36.28V25.46H37.23V24.5Z" stroke="#2B4165" stroke-width="4" stroke-linecap="round" stroke-linejoin="round"/>
<path d="M11.59 31.01H10.64V31.97H11.59V31.01Z" stroke="#FFB200" stroke-width="4" stroke-linecap="round" stroke-linejoin="round"/>
<path d="M18 31.01H17.05V31.97H18V31.01Z" stroke="#2B4165" stroke-width="4" stroke-linecap="round" stroke-linejoin="round"/>
<path d="M24.41 31.01H23.46V31.97H24.41V31.01Z" stroke="#2B4165" stroke-width="4" stroke-linecap="round" stroke-linejoin="round"/>
<path d="M30.82 31.01H29.87V31.97H30.82V31.01Z" stroke="#2B4165" stroke-width="4" stroke-linecap="round" stroke-linejoin="round"/>
<path d="M37.23 31.01H36.28V31.97H37.23V31.01Z" stroke="#2B4165" stroke-width="4" stroke-linecap="round" stroke-linejoin="round"/>
<path d="M11.59 37.52H10.64V38.48H11.59V37.52Z" stroke="#FFB200" stroke-width="4" stroke-linecap="round" stroke-linejoin="round"/>
<path d="M18 37.52H17.05V38.48H18V37.52Z" stroke="#2B4165" stroke-width="4" stroke-linecap="round" stroke-linejoin="round"/>
<path d="M24.41 37.52H23.46V38.48H24.41V37.52Z" stroke="#2B4165" stroke-width="4" stroke-linecap="round" stroke-linejoin="round"/>
<path d="M30.82 37.52H29.87V38.48H30.82V37.52Z" stroke="#2B4165" stroke-width="4" stroke-linecap="round" stroke-linejoin="round"/>
<path d="M37.23 37.52H36.28V38.48H37.23V37.52Z" stroke="#2B4165" stroke-width="4" stroke-linecap="round" stroke-linejoin="round"/>
<path d="M7.12 17.49H40.88" stroke="#FFB200" stroke-width="4" stroke-linecap="round" stroke-linejoin="round"/>
</svg>
