<svg width="48" height="48" viewBox="0 0 48 48" fill="none" xmlns="http://www.w3.org/2000/svg">
<path d="M6.00001 38.23C4.84503 37.7454 3.87949 36.8974 3.24972 35.8147C2.61995 34.732 2.36026 33.4736 2.51001 32.23C2.47001 29.33 6.00001 28.78 6.00001 28.78" stroke="#00C900" stroke-width="4" stroke-linecap="round" stroke-linejoin="round"/>
<path d="M5.96002 38.25L17.94 43.72L45.55 37.38" stroke="#00C900" stroke-width="4" stroke-linecap="round" stroke-linejoin="round"/>
<path d="M6.00001 28.75C4.84503 28.2654 3.87949 27.4174 3.24972 26.3347C2.61995 25.252 2.36026 23.9936 2.51001 22.75C2.47001 19.86 6.00001 19.3 6.00001 19.3L18 24.78L45.61 18.43" stroke="#2B4165" stroke-width="4" stroke-linecap="round" stroke-linejoin="round"/>
<path d="M5.96002 28.78L17.94 34.25L45.55 27.9" stroke="#2B4165" stroke-width="4" stroke-linecap="round" stroke-linejoin="round"/>
<path d="M6.00001 9.83C6.00001 9.83 2.51001 10.39 2.51001 13.32C2.36026 14.5636 2.61995 15.822 3.24972 16.9047C3.87949 17.9874 4.84503 18.8354 6.00001 19.32" stroke="#2B4165" stroke-width="4" stroke-linecap="round" stroke-linejoin="round"/>
<path d="M29.29 4.28L45.55 8.96L17.94 15.3L5.96002 9.83L29.29 4.28Z" fill="#2B4165" stroke="#2B4165" stroke-width="4" stroke-linecap="round" stroke-linejoin="round"/>
</svg>
