<svg width="24" height="24" viewBox="0 0 24 24" fill="none" xmlns="http://www.w3.org/2000/svg">
<path d="M3.00004 19.115C2.42254 18.8727 1.93978 18.4487 1.62489 17.9074C1.31001 17.366 1.18016 16.7368 1.25504 16.115C1.23504 14.665 3.00004 14.39 3.00004 14.39" stroke="white" stroke-linecap="round" stroke-linejoin="round"/>
<path d="M2.98004 19.125L8.97004 21.86L22.775 18.69" stroke="white" stroke-linecap="round" stroke-linejoin="round"/>
<path d="M3.00004 14.375C2.42254 14.1327 1.93978 13.7087 1.62489 13.1674C1.31001 12.626 1.18016 11.9968 1.25504 11.375C1.23504 9.93 3.00004 9.65 3.00004 9.65L9.00004 12.39L22.805 9.215" stroke="white" stroke-linecap="round" stroke-linejoin="round"/>
<path d="M2.98004 14.39L8.97004 17.125L22.775 13.95" stroke="white" stroke-linecap="round" stroke-linejoin="round"/>
<path d="M3.00004 4.91499C3.00004 4.91499 1.25504 5.19499 1.25504 6.65999C1.18016 7.28177 1.31001 7.91101 1.62489 8.45236C1.93978 8.99372 2.42254 9.41767 3.00004 9.65999" stroke="white" stroke-linecap="round" stroke-linejoin="round"/>
<path d="M14.645 2.14L22.775 4.48L8.97004 7.65L2.98004 4.915L14.645 2.14Z" fill="white" stroke="white" stroke-linecap="round" stroke-linejoin="round"/>
</svg>
