<svg width="48" height="48" viewBox="0 0 48 48" fill="none" xmlns="http://www.w3.org/2000/svg">
<path d="M44.78 6.14001V40.56H27.7C27.3441 40.5584 26.9928 40.6409 26.6748 40.8008C26.3568 40.9607 26.081 41.1934 25.87 41.48C25.3399 42.1628 24.8903 42.9043 24.53 43.69C24.4902 43.7972 24.4186 43.8896 24.3247 43.9549C24.2309 44.0202 24.1193 44.0551 24.005 44.0551C23.8907 44.0551 23.7791 44.0202 23.6853 43.9549C23.5914 43.8896 23.5198 43.7972 23.48 43.69C23.1236 42.9023 22.6737 42.1603 22.14 41.48C21.9305 41.1942 21.6565 40.9618 21.3402 40.802C21.0239 40.6421 20.6744 40.5592 20.32 40.56H3.22V6.14001H20.32C20.6744 6.13919 21.0239 6.2221 21.3402 6.38197C21.6565 6.54185 21.9305 6.77416 22.14 7.06001C22.6737 7.74027 23.1236 8.48227 23.48 9.27001C23.5198 9.37718 23.5914 9.46961 23.6853 9.53488C23.7791 9.60015 23.8907 9.63513 24.005 9.63513C24.1193 9.63513 24.2309 9.60015 24.3247 9.53488C24.4186 9.46961 24.4902 9.37718 24.53 9.27001C24.8903 8.48431 25.3399 7.74275 25.87 7.06001C26.081 6.77339 26.3568 6.54066 26.6748 6.38079C26.9928 6.22092 27.3441 6.13842 27.7 6.14001H44.78Z" stroke="#2B4165" stroke-width="4" stroke-linecap="round" stroke-linejoin="round"/>
<path d="M24 8.60001V40.56" stroke="#2B4165" stroke-width="4" stroke-linecap="round" stroke-linejoin="round"/>
<path d="M8.38 13.31H18.6" stroke="#2B4165" stroke-width="4" stroke-linecap="round" stroke-linejoin="round"/>
<path d="M29.4 13.31H39.62" stroke="#2B4165" stroke-width="4" stroke-linecap="round" stroke-linejoin="round"/>
<path d="M29.4 21.01H39.62" stroke="#2B4165" stroke-width="4" stroke-linecap="round" stroke-linejoin="round"/>
<path d="M29.4 28.72H39.62" stroke="#2B4165" stroke-width="4" stroke-linecap="round" stroke-linejoin="round"/>
<path d="M18.32 20.63H9.06V29.89H18.32V20.63Z" fill="#00C900" stroke="#00C900" stroke-width="4" stroke-linecap="round" stroke-linejoin="round"/>
</svg>
