<svg width="24" height="24" viewBox="0 0 24 24" fill="none" xmlns="http://www.w3.org/2000/svg">
<path d="M6.99997 2.85999H19.31V21.14H6.99997C6.39435 21.1387 5.81392 20.8975 5.38569 20.4693C4.95745 20.041 4.71629 19.4606 4.71497 18.855V5.14499C4.71629 4.53938 4.95745 3.95895 5.38569 3.53071C5.81392 3.10248 6.39435 2.86131 6.99997 2.85999Z" stroke="white" stroke-linecap="round" stroke-linejoin="round"/>
<path d="M4.69 18.855C4.68998 18.5528 4.74991 18.2536 4.8663 17.9748C4.98269 17.6959 5.15324 17.4429 5.36808 17.2304C5.58291 17.0179 5.83777 16.8501 6.11789 16.7367C6.39801 16.6234 6.69783 16.5667 7 16.57H19.31" stroke="white" stroke-linecap="round" stroke-linejoin="round"/>
<path d="M7.94501 7.01001H16.54" stroke="white" stroke-linecap="round" stroke-linejoin="round"/>
<path d="M7.94501 12.885H12" stroke="white" stroke-linecap="round" stroke-linejoin="round"/>
</svg>
