<svg width="24" height="24" viewBox="0 0 24 24" fill="none" xmlns="http://www.w3.org/2000/svg">
<path d="M22.39 3.07V20.28H13.85C13.672 20.2792 13.4964 20.3205 13.3374 20.4004C13.1784 20.4803 13.0405 20.5967 12.935 20.74C12.6699 21.0814 12.4451 21.4522 12.265 21.845C12.2451 21.8986 12.2093 21.9448 12.1624 21.9774C12.1154 22.0101 12.0596 22.0276 12.0025 22.0276C11.9453 22.0276 11.8895 22.0101 11.8426 21.9774C11.7957 21.9448 11.7599 21.8986 11.74 21.845C11.5618 21.4511 11.3368 21.0801 11.07 20.74C10.9652 20.5971 10.8282 20.4809 10.6701 20.401C10.512 20.321 10.3372 20.2796 10.16 20.28H1.60999V3.07H10.16C10.3372 3.0696 10.512 3.11105 10.6701 3.19099C10.8282 3.27092 10.9652 3.38708 11.07 3.53C11.3368 3.87013 11.5618 4.24113 11.74 4.635C11.7599 4.68859 11.7957 4.7348 11.8426 4.76744C11.8895 4.80007 11.9453 4.81757 12.0025 4.81757C12.0596 4.81757 12.1154 4.80007 12.1624 4.76744C12.2093 4.7348 12.2451 4.68859 12.265 4.635C12.4451 4.24215 12.6699 3.87137 12.935 3.53C13.0405 3.38669 13.1784 3.27033 13.3374 3.1904C13.4964 3.11046 13.672 3.06921 13.85 3.07H22.39Z" stroke="white" stroke-linecap="round" stroke-linejoin="round"/>
<path d="M12 4.3V20.28" stroke="white" stroke-linecap="round" stroke-linejoin="round"/>
<path d="M17.61 15.985V10.88H16.355" stroke="white" stroke-linecap="round" stroke-linejoin="round"/>
<path d="M17.725 8.015H17.37V8.37H17.725V8.015Z" stroke="white" stroke-linecap="round" stroke-linejoin="round"/>
</svg>
