<svg width="48" height="48" viewBox="0 0 48 48" fill="none" xmlns="http://www.w3.org/2000/svg">
<path d="M6.63 28.74H10.99H15.7V24.04V19.66H11.93H6.63V24.97V28.74Z" fill="#2B4165" stroke="#2B4165" stroke-width="4" stroke-linecap="round" stroke-linejoin="round"/>
<path d="M6.63 13.13H10.99H15.7V8.43V4.05H11.93H6.63V9.35V13.13Z" fill="#2B4165" stroke="#2B4165" stroke-width="4" stroke-linecap="round" stroke-linejoin="round"/>
<path d="M9.24 7.95L11.14 9.85L17.15 3.84" stroke="#FFB200" stroke-width="4" stroke-linecap="round" stroke-linejoin="round"/>
<path d="M9.24 23.56L11.14 25.46L17.15 19.45" stroke="#FFB200" stroke-width="4" stroke-linecap="round" stroke-linejoin="round"/>
<path d="M6.63 44.35H10.99H15.7V39.65V35.28H11.93H6.63V40.58V44.35Z" stroke="#2B4165" stroke-width="4" stroke-linecap="round" stroke-linejoin="round"/>
<path d="M8.16 42.64L14.17 36.62" stroke="#FFB200" stroke-width="4" stroke-linecap="round" stroke-linejoin="round"/>
<path d="M14.17 42.64L8.16 36.62" stroke="#FFB200" stroke-width="4" stroke-linecap="round" stroke-linejoin="round"/>
<path d="M22.17 8.59H42.43" stroke="#2B4165" stroke-width="4" stroke-linecap="round" stroke-linejoin="round"/>
<path d="M22.17 24.2H42.43" stroke="#2B4165" stroke-width="4" stroke-linecap="round" stroke-linejoin="round"/>
<path d="M22.17 39.81H42.43" stroke="#2B4165" stroke-width="4" stroke-linecap="round" stroke-linejoin="round"/>
</svg>
