<svg width="24" height="24" viewBox="0 0 24 24" fill="none" xmlns="http://www.w3.org/2000/svg">
<path d="M7.00003 2.86H19.31V21.14H7.00003C6.39441 21.1387 5.81398 20.8975 5.38575 20.4693C4.95751 20.041 4.71635 19.4606 4.71503 18.855V5.145C4.71635 4.53939 4.95751 3.95896 5.38575 3.53072C5.81398 3.10249 6.39441 2.86132 7.00003 2.86V2.86Z" stroke="white" stroke-linecap="round" stroke-linejoin="round"/>
<path d="M4.69 18.855C4.68998 18.5528 4.74991 18.2536 4.8663 17.9747C4.98269 17.6959 5.15324 17.4429 5.36808 17.2303C5.58291 17.0178 5.83777 16.8501 6.11789 16.7367C6.39801 16.6233 6.69783 16.5667 7 16.57H19.31" stroke="white" stroke-linecap="round" stroke-linejoin="round"/>
<path d="M7.94501 7.00999H16.54" stroke="white" stroke-linecap="round" stroke-linejoin="round"/>
<path d="M7.94501 12.885H12" stroke="white" stroke-linecap="round" stroke-linejoin="round"/>
</svg>
