<svg width="48" height="48" viewBox="0 0 48 48" fill="none" xmlns="http://www.w3.org/2000/svg">
<path d="M14 5.72H38.62V42.28H14C12.7888 42.2774 11.6279 41.795 10.7714 40.9386C9.91496 40.0821 9.43263 38.9212 9.42999 37.71V10.29C9.43263 9.07877 9.91496 7.91791 10.7714 7.06144C11.6279 6.20497 12.7888 5.72264 14 5.72V5.72Z" stroke="#2B4165" stroke-width="4" stroke-linecap="round" stroke-linejoin="round"/>
<path d="M9.38 37.71C9.37997 37.1056 9.49981 36.5072 9.7326 35.9495C9.96538 35.3918 10.3065 34.8857 10.7362 34.4607C11.1658 34.0357 11.6755 33.7001 12.2358 33.4734C12.796 33.2467 13.3957 33.1334 14 33.14H38.62" stroke="#2B4165" stroke-width="4" stroke-linecap="round" stroke-linejoin="round"/>
<path d="M15.89 14.02H33.08" stroke="#FFB200" stroke-width="4" stroke-linecap="round" stroke-linejoin="round"/>
<path d="M15.89 25.77H24" stroke="#FFB200" stroke-width="4" stroke-linecap="round" stroke-linejoin="round"/>
</svg>
