<svg width="20" height="17" viewBox="0 0 20 17" xmlns="http://www.w3.org/2000/svg">
<path
  d="M18.5 0H1.5C0.671573 0 0 0.671573 0 1.5C0 2.32843 0.671573 3 1.5 3H18.5C19.3284 3 20 2.32843 20 1.5C20 0.671573 19.3284 0 18.5 0Z" fill="#0062b2"/>
<path
  d="M18.5 7H1.5C0.671573 7 0 7.67157 0 8.5C0 9.32843 0.671573 10 1.5 10H18.5C19.3284 10 20 9.32843 20 8.5C20 7.67157 19.3284 7 18.5 7Z" fill="#0062b2"/>
<path
  d="M18.5 14H1.5C0.671573 14 0 14.6716 0 15.5C0 16.3284 0.671573 17 1.5 17H18.5C19.3284 17 20 16.3284 20 15.5C20 14.6716 19.3284 14 18.5 14Z" fill="#0062b2"/>
</svg>