<svg width="17" height="17" viewBox="0 0 17 17" fill="none" xmlns="http://www.w3.org/2000/svg">
<path d="M15.2028 13.2236L3.182 1.20278C2.59621 0.616994 1.64646 0.616994 1.06068 1.20278C0.474891 1.78857 0.474891 2.73831 1.06068 3.3241L13.0815 15.3449C13.6673 15.9307 14.617 15.9307 15.2028 15.3449C15.7886 14.7591 15.7886 13.8094 15.2028 13.2236Z" fill="white"/>
<path d="M13.2028 1.06068L1.182 13.0815C0.596212 13.6673 0.596212 14.617 1.182 15.2028C1.76778 15.7886 2.71753 15.7886 3.30332 15.2028L15.3241 3.182C15.9099 2.59621 15.9099 1.64646 15.3241 1.06068C14.7383 0.474889 13.7886 0.474888 13.2028 1.06068Z" fill="white"/>
</svg>
