<svg width="48" height="48" viewBox="0 0 48 48" fill="none" xmlns="http://www.w3.org/2000/svg">
<path d="M32.2 7.61H36.29C36.8288 7.60868 37.3625 7.71383 37.8606 7.9194C38.3586 8.12498 38.8111 8.42694 39.1921 8.80792C39.5731 9.1889 39.875 9.64141 40.0806 10.1394C40.2862 10.6375 40.3913 11.1712 40.39 11.71V40.39C40.39 41.4774 39.958 42.5202 39.1891 43.2891C38.4202 44.058 37.3774 44.49 36.29 44.49H11.71C10.6226 44.49 9.57976 44.058 8.81086 43.2891C8.04196 42.5202 7.61 41.4774 7.61 40.39V11.71C7.60868 11.1712 7.71383 10.6375 7.9194 10.1394C8.12498 9.64141 8.42694 9.1889 8.80792 8.80792C9.1889 8.42694 9.64141 8.12498 10.1394 7.9194C10.6375 7.71383 11.1712 7.60868 11.71 7.61H15.8" stroke="#2B4165" stroke-width="4" stroke-linecap="round" stroke-linejoin="round"/>
<path d="M14.98 20.77H33.02" stroke="#2B4165" stroke-width="4" stroke-linecap="round" stroke-linejoin="round"/>
<path d="M14.98 28.47H33.02" stroke="#2B4165" stroke-width="4" stroke-linecap="round" stroke-linejoin="round"/>
<path d="M14.98 36.17H33.02" stroke="#2B4165" stroke-width="4" stroke-linecap="round" stroke-linejoin="round"/>
<path d="M23.5 3.23V6.13" stroke="#2B4165" stroke-width="4" stroke-linecap="round" stroke-linejoin="round"/>
<path d="M19.55 12.09H28.45L29.75 5.87H18.25L19.55 12.09Z" fill="#FFB200" stroke="#FFB200" stroke-width="4" stroke-linecap="round" stroke-linejoin="round"/>
</svg>
