<svg width="24" height="24" viewBox="0 0 24 24" fill="none" xmlns="http://www.w3.org/2000/svg">
<path d="M19.27 3.695H4.73003C3.58404 3.695 2.65503 4.62401 2.65503 5.77V20.31C2.65503 21.456 3.58404 22.385 4.73003 22.385H19.27C20.416 22.385 21.345 21.456 21.345 20.31V5.77C21.345 4.62401 20.416 3.695 19.27 3.695Z" stroke="white" stroke-linecap="round" stroke-linejoin="round"/>
<path d="M16.155 1.61501V5.77001" stroke="white" stroke-linecap="round" stroke-linejoin="round"/>
<path d="M7.84497 1.61501V5.77001" stroke="white" stroke-linecap="round" stroke-linejoin="round"/>
<path d="M5.79501 12.25H5.32001V12.73H5.79501V12.25Z" stroke="white" stroke-linecap="round" stroke-linejoin="round"/>
<path d="M9.00003 12.25H8.52502V12.73H9.00003V12.25Z" stroke="white" stroke-linecap="round" stroke-linejoin="round"/>
<path d="M12.205 12.25H11.73V12.73H12.205V12.25Z" stroke="white" stroke-linecap="round" stroke-linejoin="round"/>
<path d="M15.41 12.25H14.935V12.73H15.41V12.25Z" stroke="white" stroke-linecap="round" stroke-linejoin="round"/>
<path d="M18.615 12.25H18.14V12.73H18.615V12.25Z" stroke="white" stroke-linecap="round" stroke-linejoin="round"/>
<path d="M5.79501 15.505H5.32001V15.985H5.79501V15.505Z" stroke="white" stroke-linecap="round" stroke-linejoin="round"/>
<path d="M9.00003 15.505H8.52502V15.985H9.00003V15.505Z" stroke="white" stroke-linecap="round" stroke-linejoin="round"/>
<path d="M12.205 15.505H11.73V15.985H12.205V15.505Z" stroke="white" stroke-linecap="round" stroke-linejoin="round"/>
<path d="M15.41 15.505H14.935V15.985H15.41V15.505Z" stroke="white" stroke-linecap="round" stroke-linejoin="round"/>
<path d="M18.615 15.505H18.14V15.985H18.615V15.505Z" stroke="white" stroke-linecap="round" stroke-linejoin="round"/>
<path d="M5.79501 18.76H5.32001V19.24H5.79501V18.76Z" stroke="white" stroke-linecap="round" stroke-linejoin="round"/>
<path d="M9.00003 18.76H8.52502V19.24H9.00003V18.76Z" stroke="white" stroke-linecap="round" stroke-linejoin="round"/>
<path d="M12.205 18.76H11.73V19.24H12.205V18.76Z" stroke="white" stroke-linecap="round" stroke-linejoin="round"/>
<path d="M15.41 18.76H14.935V19.24H15.41V18.76Z" stroke="white" stroke-linecap="round" stroke-linejoin="round"/>
<path d="M18.615 18.76H18.14V19.24H18.615V18.76Z" stroke="white" stroke-linecap="round" stroke-linejoin="round"/>
<path d="M3.56 8.745H20.44" stroke="white" stroke-linecap="round" stroke-linejoin="round"/>
</svg>
