<svg width="131" height="19" viewBox="0 0 131 19" fill="none" xmlns="http://www.w3.org/2000/svg">
<path d="M37.6023 2.72C38.8399 2.72 39.9143 2.924 40.8255 3.332C41.7503 3.74 42.4575 4.3248 42.9471 5.0864C43.4367 5.848 43.6815 6.7524 43.6815 7.7996C43.6815 8.8332 43.4367 9.7376 42.9471 10.5128C42.4575 11.2744 41.7503 11.8592 40.8255 12.2672C39.9143 12.6752 38.8399 12.8792 37.6023 12.8792H34.3791V17H31.7271V2.72H37.6023ZM37.4799 10.6352C38.6359 10.6352 39.5131 10.3904 40.1115 9.9008C40.7099 9.4112 41.0091 8.7108 41.0091 7.7996C41.0091 6.8884 40.7099 6.188 40.1115 5.6984C39.5131 5.2088 38.6359 4.964 37.4799 4.964H34.3791V10.6352H37.4799Z" fill="black"/>
<path d="M48.413 7.6976C49.1474 6.5552 50.4394 5.984 52.289 5.984V8.4116C52.0714 8.3708 51.8742 8.3504 51.6974 8.3504C50.7046 8.3504 49.9294 8.6428 49.3718 9.2276C48.8142 9.7988 48.5354 10.6284 48.5354 11.7164V17H45.9854V6.1064H48.413V7.6976Z" fill="black"/>
<path d="M59.2486 17.1428C58.147 17.1428 57.1542 16.9048 56.2702 16.4288C55.3862 15.9528 54.6926 15.2932 54.1894 14.45C53.6998 13.5932 53.455 12.6276 53.455 11.5532C53.455 10.4788 53.6998 9.52 54.1894 8.6768C54.6926 7.8336 55.3862 7.174 56.2702 6.698C57.1542 6.222 58.147 5.984 59.2486 5.984C60.3638 5.984 61.3634 6.222 62.2474 6.698C63.1314 7.174 63.8182 7.8336 64.3078 8.6768C64.811 9.52 65.0626 10.4788 65.0626 11.5532C65.0626 12.6276 64.811 13.5932 64.3078 14.45C63.8182 15.2932 63.1314 15.9528 62.2474 16.4288C61.3634 16.9048 60.3638 17.1428 59.2486 17.1428ZM59.2486 14.96C60.187 14.96 60.9622 14.6472 61.5742 14.0216C62.1862 13.396 62.4922 12.5732 62.4922 11.5532C62.4922 10.5332 62.1862 9.7104 61.5742 9.0848C60.9622 8.4592 60.187 8.1464 59.2486 8.1464C58.3102 8.1464 57.535 8.4592 56.923 9.0848C56.3246 9.7104 56.0254 10.5332 56.0254 11.5532C56.0254 12.5732 56.3246 13.396 56.923 14.0216C57.535 14.6472 58.3102 14.96 59.2486 14.96Z" fill="black"/>
<path d="M71.9279 3.7808C70.8535 3.7808 70.3163 4.3656 70.3163 5.5352V6.188H73.3151V8.228H70.3979V17H67.8479V8.228H66.0527V6.188H67.8479V5.4944C67.8479 4.3248 68.1879 3.4068 68.8679 2.7404C69.5479 2.0604 70.5067 1.7204 71.7443 1.7204C72.7235 1.7204 73.4919 1.9176 74.0495 2.312L73.3355 4.2296C72.9003 3.9304 72.4311 3.7808 71.9279 3.7808Z" fill="black"/>
<path d="M85.113 11.6144C85.113 11.7912 85.0994 12.0428 85.0722 12.3692H76.5246C76.6742 13.1716 77.0618 13.8108 77.6874 14.2868C78.3266 14.7492 79.1154 14.9804 80.0538 14.9804C81.2506 14.9804 82.2366 14.586 83.0118 13.7972L84.3786 15.368C83.889 15.9528 83.2702 16.3948 82.5222 16.694C81.7742 16.9932 80.931 17.1428 79.9926 17.1428C78.7958 17.1428 77.7418 16.9048 76.8306 16.4288C75.9194 15.9528 75.2122 15.2932 74.709 14.45C74.2194 13.5932 73.9746 12.6276 73.9746 11.5532C73.9746 10.4924 74.2126 9.5404 74.6886 8.6972C75.1782 7.8404 75.8514 7.174 76.7082 6.698C77.565 6.222 78.5306 5.984 79.605 5.984C80.6658 5.984 81.611 6.222 82.4406 6.698C83.2838 7.1604 83.9366 7.82 84.399 8.6768C84.875 9.52 85.113 10.4992 85.113 11.6144ZM79.605 8.024C78.789 8.024 78.0954 8.2688 77.5242 8.7584C76.9666 9.2344 76.6266 9.8736 76.5042 10.676H82.6854C82.5766 9.8872 82.2434 9.248 81.6858 8.7584C81.1282 8.2688 80.4346 8.024 79.605 8.024Z" fill="black"/>
<path d="M90.9284 17.1428C90.0444 17.1428 89.1808 17.0272 88.3376 16.796C87.4944 16.5648 86.8212 16.2724 86.318 15.9188L87.2972 13.9808C87.7868 14.3072 88.3716 14.5724 89.0516 14.7764C89.7452 14.9668 90.4252 15.062 91.0916 15.062C92.6148 15.062 93.3764 14.6608 93.3764 13.8584C93.3764 13.4776 93.1792 13.2124 92.7848 13.0628C92.404 12.9132 91.7852 12.7704 90.9284 12.6344C90.0308 12.4984 89.2964 12.342 88.7252 12.1652C88.1676 11.9884 87.678 11.6824 87.2564 11.2472C86.8484 10.7984 86.6444 10.1796 86.6444 9.3908C86.6444 8.3572 87.0728 7.5344 87.9296 6.9224C88.8 6.2968 89.9696 5.984 91.4384 5.984C92.1864 5.984 92.9344 6.0724 93.6824 6.2492C94.4304 6.4124 95.0424 6.6368 95.5184 6.9224L94.5392 8.8604C93.6144 8.3164 92.574 8.0444 91.418 8.0444C90.67 8.0444 90.0988 8.16 89.7044 8.3912C89.3236 8.6088 89.1332 8.9012 89.1332 9.2684C89.1332 9.6764 89.3372 9.9688 89.7452 10.1456C90.1668 10.3088 90.8128 10.4652 91.6832 10.6148C92.5536 10.7508 93.2676 10.9072 93.8252 11.084C94.3828 11.2608 94.8588 11.56 95.2532 11.9816C95.6612 12.4032 95.8652 13.0016 95.8652 13.7768C95.8652 14.7968 95.4232 15.6128 94.5392 16.2248C93.6552 16.8368 92.4516 17.1428 90.9284 17.1428Z" fill="black"/>
<path d="M101.427 17.1428C100.543 17.1428 99.6796 17.0272 98.8364 16.796C97.9932 16.5648 97.32 16.2724 96.8168 15.9188L97.796 13.9808C98.2856 14.3072 98.8704 14.5724 99.5504 14.7764C100.244 14.9668 100.924 15.062 101.59 15.062C103.114 15.062 103.875 14.6608 103.875 13.8584C103.875 13.4776 103.678 13.2124 103.284 13.0628C102.903 12.9132 102.284 12.7704 101.427 12.6344C100.53 12.4984 99.7952 12.342 99.224 12.1652C98.6664 11.9884 98.1768 11.6824 97.7552 11.2472C97.3472 10.7984 97.1432 10.1796 97.1432 9.3908C97.1432 8.3572 97.5716 7.5344 98.4284 6.9224C99.2988 6.2968 100.468 5.984 101.937 5.984C102.685 5.984 103.433 6.0724 104.181 6.2492C104.929 6.4124 105.541 6.6368 106.017 6.9224L105.038 8.8604C104.113 8.3164 103.073 8.0444 101.917 8.0444C101.169 8.0444 100.598 8.16 100.203 8.3912C99.8224 8.6088 99.632 8.9012 99.632 9.2684C99.632 9.6764 99.836 9.9688 100.244 10.1456C100.666 10.3088 101.312 10.4652 102.182 10.6148C103.052 10.7508 103.766 10.9072 104.324 11.084C104.882 11.2608 105.358 11.56 105.752 11.9816C106.16 12.4032 106.364 13.0016 106.364 13.7768C106.364 14.7968 105.922 15.6128 105.038 16.2248C104.154 16.8368 102.95 17.1428 101.427 17.1428Z" fill="black"/>
<path d="M119.107 6.1064V17H116.679V15.6128C116.271 16.1024 115.761 16.4832 115.149 16.7552C114.537 17.0136 113.878 17.1428 113.17 17.1428C111.715 17.1428 110.566 16.7416 109.723 15.9392C108.893 15.1232 108.478 13.9196 108.478 12.3284V6.1064H111.028V11.9816C111.028 12.9608 111.246 13.6952 111.681 14.1848C112.13 14.6608 112.762 14.8988 113.578 14.8988C114.49 14.8988 115.21 14.62 115.741 14.0624C116.285 13.4912 116.557 12.6752 116.557 11.6144V6.1064H119.107Z" fill="black"/>
<path d="M125.812 17.1428C124.928 17.1428 124.064 17.0272 123.221 16.796C122.378 16.5648 121.704 16.2724 121.201 15.9188L122.18 13.9808C122.67 14.3072 123.255 14.5724 123.935 14.7764C124.628 14.9668 125.308 15.062 125.975 15.062C127.498 15.062 128.26 14.6608 128.26 13.8584C128.26 13.4776 128.062 13.2124 127.668 13.0628C127.287 12.9132 126.668 12.7704 125.812 12.6344C124.914 12.4984 124.18 12.342 123.608 12.1652C123.051 11.9884 122.561 11.6824 122.14 11.2472C121.732 10.7984 121.528 10.1796 121.528 9.3908C121.528 8.3572 121.956 7.5344 122.813 6.9224C123.683 6.2968 124.853 5.984 126.322 5.984C127.07 5.984 127.818 6.0724 128.566 6.2492C129.314 6.4124 129.926 6.6368 130.402 6.9224L129.422 8.8604C128.498 8.3164 127.457 8.0444 126.301 8.0444C125.553 8.0444 124.982 8.16 124.588 8.3912C124.207 8.6088 124.016 8.9012 124.016 9.2684C124.016 9.6764 124.22 9.9688 124.628 10.1456C125.05 10.3088 125.696 10.4652 126.566 10.6148C127.437 10.7508 128.151 10.9072 128.708 11.084C129.266 11.2608 129.742 11.56 130.136 11.9816C130.544 12.4032 130.748 13.0016 130.748 13.7768C130.748 14.7968 130.306 15.6128 129.422 16.2248C128.538 16.8368 127.335 17.1428 125.812 17.1428Z" fill="black"/>
<path d="M3.17721 8.93597L0 12.0342L6.90185 19L8.02743 17.8564L5.64325 11.4L3.17721 8.93597Z" fill="#FFB200"/>
<path d="M7.00926 12.762L5.64322 11.4L8.0274 17.8564L13.8855 11.925H7.82275L7.00926 12.762Z" fill="#00B2F5"/>
<path d="M22.6191 3.07223L19.3088 0L13.333 6.20164L14.9344 10.8646L22.6191 3.07223Z" fill="#FF0B17"/>
<path d="M13.333 6.20166L7.82278 11.9251H13.8856L14.9344 10.8646L13.333 6.20166Z" fill="#00C900"/>
</svg>
