<svg width="24" height="24" viewBox="0 0 24 24" fill="none" xmlns="http://www.w3.org/2000/svg">
<path d="M12.05 22.295C17.7358 22.295 22.345 17.6858 22.345 12C22.345 6.31423 17.7358 1.705 12.05 1.705C6.36423 1.705 1.755 6.31423 1.755 12C1.755 17.6858 6.36423 22.295 12.05 22.295Z" stroke="white" stroke-linecap="round" stroke-linejoin="round"/>
<path d="M14.795 8.09H10.605C10.0865 8.09 9.5892 8.29598 9.22257 8.66261C8.85594 9.02924 8.64996 9.52651 8.64996 10.045C8.64996 10.5635 8.85594 11.0608 9.22257 11.4274C9.5892 11.794 10.0865 12 10.605 12H13.4C13.9185 12 14.4157 12.206 14.7824 12.5726C15.149 12.9392 15.355 13.4365 15.355 13.955C15.355 14.4735 15.149 14.9708 14.7824 15.3374C14.4157 15.704 13.9185 15.91 13.4 15.91H8.64996" stroke="white" stroke-linecap="round" stroke-linejoin="round"/>
<path d="M12 5.855V18.145" stroke="white" stroke-linecap="round" stroke-linejoin="round"/>
</svg>
