<svg width="48" height="48" viewBox="0 0 48 48" fill="none" xmlns="http://www.w3.org/2000/svg">
<path d="M24.1 44.59C35.4716 44.59 44.69 35.3715 44.69 24C44.69 12.6285 35.4716 3.41 24.1 3.41C12.7285 3.41 3.51001 12.6285 3.51001 24C3.51001 35.3715 12.7285 44.59 24.1 44.59Z" stroke="#00C900" stroke-width="4" stroke-linecap="round" stroke-linejoin="round"/>
<path d="M29.59 16.18H21.21C20.173 16.18 19.1785 16.5919 18.4452 17.3252C17.7119 18.0585 17.3 19.053 17.3 20.09C17.3 21.127 17.7119 22.1215 18.4452 22.8548C19.1785 23.5881 20.173 24 21.21 24H26.8C27.837 24 28.8315 24.4119 29.5648 25.1452C30.298 25.8785 30.71 26.873 30.71 27.91C30.71 28.947 30.298 29.9415 29.5648 30.6748C28.8315 31.4081 27.837 31.82 26.8 31.82H17.3" stroke="#2B4165" stroke-width="4" stroke-linecap="round" stroke-linejoin="round"/>
<path d="M24 11.71V36.29" stroke="#2B4165" stroke-width="4" stroke-linecap="round" stroke-linejoin="round"/>
</svg>
