<svg width="24" height="24" viewBox="0 0 24 24" fill="none" xmlns="http://www.w3.org/2000/svg">
<path d="M16.1 3.805H18.145C18.4144 3.80434 18.6813 3.85692 18.9303 3.9597C19.1793 4.06249 19.4055 4.21347 19.596 4.40396C19.7865 4.59445 19.9375 4.8207 20.0403 5.06972C20.1431 5.31874 20.1957 5.58561 20.195 5.855V20.195C20.195 20.7387 19.979 21.2601 19.5946 21.6446C19.2101 22.029 18.6887 22.245 18.145 22.245H5.855C5.31131 22.245 4.78988 22.029 4.40543 21.6446C4.02098 21.2601 3.805 20.7387 3.805 20.195V5.855C3.80434 5.58561 3.85691 5.31874 3.9597 5.06972C4.06249 4.8207 4.21347 4.59445 4.40396 4.40396C4.59445 4.21347 4.8207 4.06249 5.06972 3.9597C5.31873 3.85692 5.5856 3.80434 5.855 3.805H7.9" stroke="white" stroke-linecap="round" stroke-linejoin="round"/>
<path d="M7.48999 10.385H16.51" stroke="white" stroke-linecap="round" stroke-linejoin="round"/>
<path d="M7.48999 14.235H16.51" stroke="white" stroke-linecap="round" stroke-linejoin="round"/>
<path d="M7.48999 18.085H16.51" stroke="white" stroke-linecap="round" stroke-linejoin="round"/>
<path d="M11.75 1.615V3.065" stroke="white" stroke-linecap="round" stroke-linejoin="round"/>
<path d="M9.775 6.045H14.225L14.875 2.935H9.125L9.775 6.045Z" fill="white" stroke="white" stroke-linecap="round" stroke-linejoin="round"/>
</svg>
