<svg width="48" height="48" viewBox="0 0 48 48" fill="none" xmlns="http://www.w3.org/2000/svg">
<path d="M44.78 6.14V40.56H27.7C27.3441 40.5584 26.9928 40.6409 26.6748 40.8008C26.3568 40.9607 26.081 41.1934 25.87 41.48C25.3399 42.1627 24.8903 42.9043 24.53 43.69C24.4902 43.7972 24.4186 43.8896 24.3247 43.9549C24.2309 44.0201 24.1193 44.0551 24.005 44.0551C23.8907 44.0551 23.7791 44.0201 23.6853 43.9549C23.5914 43.8896 23.5198 43.7972 23.48 43.69C23.1236 42.9023 22.6737 42.1603 22.14 41.48C21.9305 41.1942 21.6565 40.9618 21.3402 40.802C21.0239 40.6421 20.6744 40.5592 20.32 40.56H3.22V6.14H20.32C20.6744 6.13919 21.0239 6.22209 21.3402 6.38196C21.6565 6.54184 21.9305 6.77416 22.14 7.06C22.6737 7.74026 23.1236 8.48226 23.48 9.27C23.5198 9.37717 23.5914 9.4696 23.6853 9.53487C23.7791 9.60014 23.8907 9.63513 24.005 9.63513C24.1193 9.63513 24.2309 9.60014 24.3247 9.53487C24.4186 9.4696 24.4902 9.37717 24.53 9.27C24.8903 8.4843 25.3399 7.74274 25.87 7.06C26.081 6.77338 26.3568 6.54066 26.6748 6.38078C26.9928 6.22091 27.3441 6.13841 27.7 6.14H44.78Z" stroke="#2B4165" stroke-width="4" stroke-linecap="round" stroke-linejoin="round"/>
<path d="M24 8.60001V40.56" stroke="#2B4165" stroke-width="4" stroke-linecap="round" stroke-linejoin="round"/>
<path d="M35.22 31.97V21.76H32.71" stroke="#00C900" stroke-width="4" stroke-linecap="round" stroke-linejoin="round"/>
<path d="M35.45 16.03H34.74V16.74H35.45V16.03Z" stroke="#00C900" stroke-width="4" stroke-linecap="round" stroke-linejoin="round"/>
</svg>
